<?xml version="1.0" encoding="UTF-8"?> <svg xmlns="http://www.w3.org/2000/svg" width="87" height="29" viewBox="0 0 87 29" fill="none"> <path fill-rule="evenodd" clip-rule="evenodd" d="M8.75772 28.3569C10.0951 28.3569 11.1793 22.1509 11.1793 14.4953C11.1793 6.83971 10.0951 0.633789 8.75772 0.633789C7.42021 0.633789 6.33594 6.83971 6.33594 14.4953C6.33594 22.1509 7.42021 28.3569 8.75772 28.3569Z" fill="#38D430"></path> <path fill-rule="evenodd" clip-rule="evenodd" d="M5.70579 26.1902C6.54848 26.1902 7.2316 20.9537 7.2316 14.4943C7.2316 8.03511 6.54848 2.79883 5.70579 2.79883C4.86296 2.79883 4.17969 8.03511 4.17969 14.4943C4.17969 20.9537 4.86296 26.1902 5.70579 26.1902Z" fill="#38D430"></path> <path fill-rule="evenodd" clip-rule="evenodd" d="M3.78217 23.392C4.42327 23.392 4.94316 19.4089 4.94316 14.4953C4.94316 9.58174 4.42327 5.59863 3.78217 5.59863C3.14077 5.59863 2.62109 9.58174 2.62109 14.4953C2.62109 19.4089 3.14077 23.392 3.78217 23.392V23.392Z" fill="#38D430"></path> <path fill-rule="evenodd" clip-rule="evenodd" d="M0.862613 21.1929C1.33892 21.1929 1.725 18.1944 1.725 14.4954C1.725 10.7965 1.33892 7.79785 0.862613 7.79785C0.386079 7.79785 0 10.7965 0 14.4954C0 18.1944 0.386079 21.1929 0.862613 21.1929Z" fill="#38D430"></path> <path fill-rule="evenodd" clip-rule="evenodd" d="M16.0229 0.633789C15.3925 4.16582 14.8287 7.26467 14.2646 10.6634C14.4636 11.8964 14.696 13.1626 14.9281 14.4953C14.696 15.8282 14.4968 17.0944 14.2646 18.3272C14.8287 21.6926 15.3926 24.825 16.0229 28.3569C16.388 26.391 16.7196 24.5584 17.018 22.7257V6.29847C16.7195 4.46577 16.3879 2.59993 16.0229 0.633864V0.633789Z" fill="#38D430"></path> <path fill-rule="evenodd" clip-rule="evenodd" d="M14.2646 10.6628C13.6342 7.06413 13.0704 3.73197 12.3737 0C11.4781 5.03141 10.7152 9.26328 9.85254 14.4947C10.7152 19.7261 11.4781 23.9579 12.3737 28.9894C13.0372 25.2241 13.6342 21.9253 14.2646 18.3266C15.215 17.3887 15.2333 15.8467 15.4653 14.5138C15.2333 13.1811 14.4968 11.8956 14.2646 10.6628V10.6628Z" fill="#38D430"></path> <path fill-rule="evenodd" clip-rule="evenodd" d="M19 8.43219H21.9856V10.4314H22.0851C22.3173 10.065 22.5826 9.76521 22.848 9.46511C23.1133 9.16531 23.4452 8.93201 23.7768 8.69878C24.1087 8.49876 24.5066 8.33225 24.9711 8.19896C25.4024 8.06559 25.9331 8.03223 26.4971 8.03223C27.3595 8.03223 28.1889 8.23224 28.9188 8.63213C29.6818 9.03187 30.2125 9.6317 30.5112 10.4313C31.0419 9.69834 31.6719 9.09859 32.3686 8.66542C33.0653 8.23224 33.961 8.03223 34.9892 8.03223C36.5153 8.03223 37.6764 8.39883 38.5388 9.13195C39.3682 9.86492 39.7995 11.1312 39.7995 12.8638V22.7936H36.6479V14.3967C36.6479 13.8303 36.6148 13.2969 36.5816 12.8305C36.5485 12.364 36.449 11.9643 36.25 11.5977C36.084 11.2645 35.8187 10.998 35.4538 10.798C35.0889 10.5981 34.6246 10.5315 34.0273 10.5315C32.9659 10.5315 32.1698 10.8646 31.7054 11.531C31.241 12.1975 30.9756 13.1305 30.9756 14.3633V22.7935H27.824V13.5302C27.824 12.5307 27.6583 11.7643 27.2933 11.2645C26.9282 10.7646 26.265 10.4981 25.3029 10.4981C24.9048 10.4981 24.5067 10.598 24.1087 10.7646C23.7437 10.9311 23.4121 11.1644 23.1133 11.4978C22.8148 11.7976 22.5826 12.1975 22.4169 12.6641C22.251 13.1303 22.1513 13.6635 22.1513 14.2632V22.8268H19V8.43211V8.43219Z" fill="#FEFEFE"></path> <path fill-rule="evenodd" clip-rule="evenodd" d="M42.8183 16.4637C42.8183 17.0301 42.8846 17.5632 43.0505 18.063C43.2164 18.5964 43.4486 19.0296 43.7471 19.4292C44.0457 19.8291 44.4438 20.1289 44.9413 20.3622C45.4059 20.5954 46.0031 20.6953 46.6663 20.6953C47.5951 20.6953 48.3249 20.4956 48.8891 20.0957C49.453 19.6957 49.8842 19.0961 50.1496 18.2962H53.1353C52.9693 19.0628 52.6707 19.7623 52.2726 20.3955C51.8745 20.9954 51.377 21.5285 50.813 21.9284C50.2491 22.3616 49.5856 22.6614 48.8891 22.8614C48.1924 23.0611 47.4295 23.1945 46.6663 23.1945C45.5386 23.1945 44.5435 22.9946 43.6808 22.6281C42.8184 22.2615 42.0885 21.7284 41.4916 21.062C40.8943 20.3955 40.4298 19.5959 40.1314 18.6628C39.8328 17.7298 39.667 16.697 39.667 15.5973C39.667 14.5644 39.8329 13.5981 40.1646 12.6984C40.4962 11.7654 40.9605 10.9657 41.5579 10.266C42.1549 9.56626 42.8847 9.03315 43.7472 8.5999C44.6098 8.20002 45.5718 8 46.6332 8C47.7612 8 48.7563 8.2333 49.6852 8.69976C50.5809 9.1663 51.3107 9.79949 51.9079 10.5657C52.5049 11.3321 52.9362 12.2319 53.2015 13.2649C53.4669 14.2645 53.5332 15.3306 53.4007 16.3969H42.8185L42.8183 16.4637ZM50.1827 14.3644C50.1495 13.8646 50.0501 13.3649 49.851 12.9316C49.6851 12.4651 49.4197 12.0652 49.1213 11.7321C48.8227 11.3987 48.4578 11.0989 48.0265 10.8991C47.5952 10.6993 47.0976 10.5658 46.5669 10.5658C46.003 10.5658 45.5052 10.6658 45.041 10.8656C44.5767 11.0656 44.2116 11.3322 43.88 11.6655C43.5482 11.9986 43.2828 12.3985 43.1171 12.8651C42.9179 13.3316 42.8184 13.8313 42.7852 14.3644H50.1827Z" fill="#FEFEFE"></path> <path fill-rule="evenodd" clip-rule="evenodd" d="M53.002 8.43293H55.9544V11.2319H56.0207C56.1204 10.832 56.286 10.4655 56.5514 10.0989C56.8165 9.73252 57.1484 9.39921 57.5136 9.06597C57.8784 8.76595 58.3097 8.49935 58.7743 8.333C59.2385 8.13298 59.7026 8.06641 60.2003 8.06641C60.5655 8.06641 60.8309 8.06641 60.9633 8.09969C61.0963 8.13298 61.2286 8.13298 61.3946 8.16627V11.2318C61.1628 11.1985 60.9303 11.165 60.7315 11.1318C60.499 11.0985 60.2668 11.0985 60.068 11.0985C59.5373 11.0985 59.0397 11.1985 58.5419 11.4318C58.0773 11.6316 57.646 11.9649 57.3143 12.3645C56.9495 12.7979 56.6842 13.2976 56.4853 13.8974C56.286 14.4973 56.1866 15.2305 56.1866 16.03V22.8942H53.0352L53.002 8.43278V8.43293Z" fill="#FEFEFE"></path> <path fill-rule="evenodd" clip-rule="evenodd" d="M73.1054 22.0615C73.1054 24.2275 72.6407 25.8602 71.4136 26.9267C70.1858 27.9927 68.4611 28.5258 66.172 28.5258C65.442 28.5258 64.7127 28.4593 63.9827 28.2926C63.2528 28.1594 62.5896 27.8929 61.992 27.5262C61.395 27.1598 60.8978 26.6933 60.4665 26.1267C60.0684 25.5603 59.803 24.8606 59.7365 23.9941H62.8879C62.9874 24.4274 63.1533 24.794 63.3525 25.0938C63.5843 25.3604 63.8497 25.5936 64.1486 25.7603C64.447 25.927 64.7786 26.0268 65.177 26.0601C65.5415 26.0934 65.9399 26.1267 66.338 26.1267C67.5987 26.1267 68.5605 25.8269 69.1246 25.1937C69.7218 24.5607 70.0201 23.661 70.0201 22.4615V20.2623H69.9536C69.5223 21.062 68.8924 21.6951 68.1292 22.1281C67.3663 22.5613 66.5368 22.7946 65.6415 22.7946C64.4802 22.7946 63.5179 22.5946 62.722 22.1949C61.9261 21.795 61.2627 21.2619 60.7319 20.5622C60.2008 19.8625 59.836 19.0628 59.5706 18.1631C59.3385 17.2634 59.2061 16.2637 59.2061 15.2309C59.2061 14.2647 59.3385 13.3315 59.6371 12.4652C59.9354 11.5987 60.3668 10.8325 60.8978 10.1659C61.4615 9.49961 62.125 8.96635 62.9209 8.5999C63.7173 8.20002 64.6462 8 65.6415 8C66.5368 8 67.3663 8.20002 68.1292 8.56662C68.8924 8.93299 69.4564 9.5329 69.8877 10.3658H69.9536V8.40004H73.1054V22.0615ZM66.2052 20.3289C66.9016 20.3289 67.4986 20.1955 67.9964 19.8957C68.494 19.5959 68.8923 19.2293 69.1906 18.7627C69.4893 18.2962 69.7218 17.7632 69.8541 17.1636C69.9871 16.5637 70.0533 15.964 70.0533 15.3308C70.0533 14.6977 69.9871 14.1313 69.8212 13.5649C69.6882 12.9983 69.4564 12.4652 69.1574 12.032C68.8594 11.5988 68.461 11.2324 67.9635 10.9658C67.4657 10.6993 66.9016 10.5659 66.2052 10.5659C65.5085 10.5659 64.9115 10.6993 64.4469 10.9991C63.9827 11.2989 63.5843 11.6655 63.286 12.1654C62.9873 12.6319 62.7885 13.1649 62.6555 13.7645C62.5231 14.3644 62.4566 14.9641 62.4566 15.564C62.4566 16.1639 62.5231 16.7302 62.689 17.2966C62.8214 17.8633 63.0538 18.3631 63.3525 18.8295C63.6508 19.2627 64.0492 19.6292 64.5132 19.929C64.978 20.2288 65.5415 20.3289 66.2052 20.3289V20.3289Z" fill="#FEFEFE"></path> <path fill-rule="evenodd" clip-rule="evenodd" d="M76.124 16.4637C76.124 17.0301 76.1905 17.5632 76.3565 18.063C76.5224 18.5964 76.7542 19.0296 77.0529 19.4292C77.3512 19.8291 77.7495 20.1289 78.2471 20.3622C78.7117 20.5954 79.309 20.6953 79.9718 20.6953C80.9007 20.6953 81.6309 20.4956 82.195 20.0957C82.7586 19.6957 83.1897 19.0961 83.4554 18.2962H86.4409C86.2752 19.0628 85.9763 19.7623 85.5785 20.3955C85.1804 20.9954 84.6826 21.5285 84.1186 21.9284C83.5549 22.3616 82.8914 22.6614 82.195 22.8614C81.4979 23.0611 80.735 23.1945 79.9718 23.1945C78.8441 23.1945 77.849 22.9946 76.9864 22.6281C76.124 22.2615 75.394 21.7284 74.797 21.062C74.1998 20.3955 73.7358 19.5959 73.4369 18.6628C73.1386 17.7298 72.9727 16.697 72.9727 15.5973C72.9727 14.5644 73.1386 13.5981 73.4704 12.6984C73.8023 11.7654 74.2663 10.9657 74.8635 10.266C75.4605 9.56626 76.1905 9.03315 77.0529 8.5999C77.9153 8.20002 78.8776 8 79.9389 8C81.0666 8 82.062 8.2333 82.9908 8.69976C83.8867 9.1663 84.6163 9.79949 85.2134 10.5657C85.8104 11.3321 86.2416 12.2319 86.507 13.2649C86.7728 14.2645 86.8386 15.3306 86.7062 16.3969H76.124V16.4637V16.4637ZM83.4886 14.3644C83.4551 13.8646 83.3556 13.3649 83.1568 12.9316C82.9908 12.4651 82.7255 12.0652 82.4268 11.7321C82.1285 11.3987 81.7637 11.0989 81.332 10.8991C80.9007 10.6993 80.4031 10.5658 79.8724 10.5658C79.309 10.5658 78.8112 10.6658 78.3465 10.8656C77.8823 11.0656 77.5171 11.3322 77.1859 11.6655C76.854 11.9986 76.5889 12.3985 76.423 12.8651C76.2235 13.3316 76.124 13.8313 76.0911 14.3644H83.4886V14.3644Z" fill="#FEFEFE"></path> </svg> 