<svg width="152" height="18" viewBox="0 0 152 18" fill="none" xmlns="http://www.w3.org/2000/svg">
<path fill-rule="evenodd" clip-rule="evenodd" d="M18.272 13.5H4.56799V4.5H18.272L22.84 9L18.272 13.5ZM27.4079 13.5L22.84 9L27.4079 4.5H41.1119V13.5H27.4079ZM27.4079 13.5L31.9759 18H45.6799V0H31.9759L27.4079 4.5H18.272L13.704 0H0V18H13.704L18.272 13.5H27.4079Z" fill="white"/>
<path d="M59.7969 15.75C58.4458 15.75 57.2222 15.4637 56.1261 14.891C55.0427 14.3059 54.1887 13.503 53.5642 12.4822C52.9524 11.4614 52.6465 10.3099 52.6465 9.02767C52.6465 7.74545 52.9588 6.59394 53.5833 5.57314C54.2078 4.55235 55.0618 3.75563 56.1452 3.18298C57.2414 2.59789 58.465 2.30535 59.816 2.30535C60.9122 2.30535 61.9127 2.49208 62.8177 2.86554C63.7226 3.239 64.4874 3.78052 65.1119 4.4901L63.5059 5.96528C62.5373 4.94448 61.3455 4.43408 59.9307 4.43408C59.013 4.43408 58.1909 4.63326 57.4644 5.03162C56.7379 5.41753 56.1707 5.95905 55.7628 6.65619C55.355 7.35332 55.151 8.14381 55.151 9.02767C55.151 9.91153 55.355 10.702 55.7628 11.3992C56.1707 12.0963 56.7379 12.644 57.4644 13.0424C58.1909 13.4283 59.013 13.6213 59.9307 13.6213C61.3455 13.6213 62.5373 13.1046 63.5059 12.0714L65.1119 13.5652C64.4874 14.2748 63.7162 14.8163 62.7985 15.1898C61.8936 15.5633 60.893 15.75 59.7969 15.75Z" fill="white"/>
<path d="M69.5391 7.04832C70.2274 6.00263 71.4382 5.47978 73.1717 5.47978V7.70188C72.9677 7.66453 72.7829 7.64586 72.6172 7.64586C71.6868 7.64586 70.9603 7.91351 70.4377 8.44881C69.9151 8.97165 69.6538 9.73103 69.6538 10.7269V15.5633H67.264V5.59182H69.5391V7.04832Z" fill="white"/>
<path d="M79.6941 15.694C78.6617 15.694 77.7313 15.4761 76.9028 15.0404C76.0743 14.6047 75.4243 14.0009 74.9527 13.2291C74.4938 12.4449 74.2644 11.561 74.2644 10.5775C74.2644 9.59409 74.4938 8.71645 74.9527 7.94463C75.4243 7.17281 76.0743 6.56904 76.9028 6.13334C77.7313 5.69763 78.6617 5.47978 79.6941 5.47978C80.7393 5.47978 81.6761 5.69763 82.5046 6.13334C83.3331 6.56904 83.9767 7.17281 84.4356 7.94463C84.9072 8.71645 85.143 9.59409 85.143 10.5775C85.143 11.561 84.9072 12.4449 84.4356 13.2291C83.9767 14.0009 83.3331 14.6047 82.5046 15.0404C81.6761 15.4761 80.7393 15.694 79.6941 15.694ZM79.6941 13.696C80.5736 13.696 81.3001 13.4096 81.8737 12.837C82.4472 12.2643 82.734 11.5112 82.734 10.5775C82.734 9.64389 82.4472 8.89074 81.8737 8.31809C81.3001 7.74545 80.5736 7.45913 79.6941 7.45913C78.8147 7.45913 78.0882 7.74545 77.5146 8.31809C76.9538 8.89074 76.6734 9.64389 76.6734 10.5775C76.6734 11.5112 76.9538 12.2643 77.5146 12.837C78.0882 13.4096 78.8147 13.696 79.6941 13.696Z" fill="white"/>
<path d="M90.5829 15.694C89.7544 15.694 88.945 15.5882 88.1548 15.3765C87.3645 15.1649 86.7336 14.8973 86.262 14.5736L87.1797 12.7996C87.6386 13.0984 88.1867 13.3412 88.8239 13.5279C89.474 13.7022 90.1113 13.7893 90.7358 13.7893C92.1634 13.7893 92.8771 13.4221 92.8771 12.6876C92.8771 12.339 92.6923 12.0963 92.3227 11.9594C91.9658 11.8224 91.3859 11.6917 90.5829 11.5672C89.7416 11.4427 89.0534 11.2996 88.518 11.1377C87.9955 10.9759 87.5366 10.6958 87.1415 10.2974C86.7591 9.88664 86.5679 9.32022 86.5679 8.59819C86.5679 7.65209 86.9694 6.89894 87.7724 6.33874C88.5881 5.7661 89.6843 5.47978 91.0608 5.47978C91.7619 5.47978 92.4629 5.5607 93.1639 5.72253C93.8649 5.87191 94.4385 6.07732 94.8846 6.33874L93.9669 8.11269C93.1002 7.61474 92.1251 7.36576 91.0417 7.36576C90.3407 7.36576 89.8054 7.47158 89.4357 7.68321C89.0789 7.88239 88.9004 8.15004 88.9004 8.48615C88.9004 8.85961 89.0916 9.12726 89.474 9.2891C89.8691 9.43848 90.4745 9.58164 91.2903 9.71858C92.106 9.84307 92.7752 9.98623 93.2977 10.1481C93.8203 10.3099 94.2664 10.5838 94.636 10.9697C95.0184 11.3556 95.2096 11.9033 95.2096 12.6129C95.2096 13.5466 94.7954 14.2935 93.9669 14.8537C93.1384 15.4139 92.0104 15.694 90.5829 15.694Z" fill="white"/>
<path d="M100.595 15.694C99.7661 15.694 98.9567 15.5882 98.1665 15.3765C97.3762 15.1649 96.7453 14.8973 96.2737 14.5736L97.1914 12.7996C97.6503 13.0984 98.1983 13.3412 98.8356 13.5279C99.4857 13.7022 100.123 13.7893 100.747 13.7893C102.175 13.7893 102.889 13.4221 102.889 12.6876C102.889 12.339 102.704 12.0963 102.334 11.9594C101.977 11.8224 101.398 11.6917 100.595 11.5672C99.7533 11.4427 99.065 11.2996 98.5297 11.1377C98.0071 10.9759 97.5483 10.6958 97.1532 10.2974C96.7708 9.88664 96.5796 9.32022 96.5796 8.59819C96.5796 7.65209 96.9811 6.89894 97.7841 6.33874C98.5998 5.7661 99.696 5.47978 101.073 5.47978C101.774 5.47978 102.475 5.5607 103.176 5.72253C103.877 5.87191 104.45 6.07732 104.896 6.33874L103.979 8.11269C103.112 7.61474 102.137 7.36576 101.053 7.36576C100.352 7.36576 99.817 7.47158 99.4474 7.68321C99.0905 7.88239 98.9121 8.15004 98.9121 8.48615C98.9121 8.85961 99.1033 9.12726 99.4857 9.2891C99.8808 9.43848 100.486 9.58164 101.302 9.71858C102.118 9.84307 102.787 9.98623 103.309 10.1481C103.832 10.3099 104.278 10.5838 104.648 10.9697C105.03 11.3556 105.221 11.9033 105.221 12.6129C105.221 13.5466 104.807 14.2935 103.979 14.8537C103.15 15.4139 102.022 15.694 100.595 15.694Z" fill="white"/>
<path d="M113.703 15.75C112.352 15.75 111.129 15.4637 110.032 14.891C108.949 14.3059 108.095 13.503 107.471 12.4822C106.859 11.4614 106.553 10.3099 106.553 9.02767C106.553 7.74545 106.865 6.59394 107.49 5.57314C108.114 4.55235 108.968 3.75563 110.052 3.18298C111.148 2.59789 112.371 2.30535 113.722 2.30535C114.819 2.30535 115.819 2.49208 116.724 2.86554C117.629 3.239 118.394 3.78052 119.018 4.4901L117.412 5.96528C116.444 4.94448 115.252 4.43408 113.837 4.43408C112.919 4.43408 112.097 4.63326 111.371 5.03162C110.644 5.41753 110.077 5.95905 109.669 6.65619C109.261 7.35332 109.057 8.14381 109.057 9.02767C109.057 9.91153 109.261 10.702 109.669 11.3992C110.077 12.0963 110.644 12.644 111.371 13.0424C112.097 13.4283 112.919 13.6213 113.837 13.6213C115.252 13.6213 116.444 13.1046 117.412 12.0714L119.018 13.5652C118.394 14.2748 117.623 14.8163 116.705 15.1898C115.8 15.5633 114.799 15.75 113.703 15.75Z" fill="white"/>
<path d="M125.385 15.694C124.353 15.694 123.423 15.4761 122.594 15.0404C121.766 14.6047 121.116 14.0009 120.644 13.2291C120.185 12.4449 119.956 11.561 119.956 10.5775C119.956 9.59409 120.185 8.71645 120.644 7.94463C121.116 7.17281 121.766 6.56904 122.594 6.13334C123.423 5.69763 124.353 5.47978 125.385 5.47978C126.431 5.47978 127.367 5.69763 128.196 6.13334C129.024 6.56904 129.668 7.17281 130.127 7.94463C130.598 8.71645 130.834 9.59409 130.834 10.5775C130.834 11.561 130.598 12.4449 130.127 13.2291C129.668 14.0009 129.024 14.6047 128.196 15.0404C127.367 15.4761 126.431 15.694 125.385 15.694ZM125.385 13.696C126.265 13.696 126.991 13.4096 127.565 12.837C128.139 12.2643 128.425 11.5112 128.425 10.5775C128.425 9.64389 128.139 8.89074 127.565 8.31809C126.991 7.74545 126.265 7.45913 125.385 7.45913C124.506 7.45913 123.779 7.74545 123.206 8.31809C122.645 8.89074 122.365 9.64389 122.365 10.5775C122.365 11.5112 122.645 12.2643 123.206 12.837C123.779 13.4096 124.506 13.696 125.385 13.696Z" fill="white"/>
<path d="M138.568 5.47978C139.855 5.47978 140.888 5.84702 141.665 6.58149C142.443 7.31597 142.832 8.40524 142.832 9.84929V15.5633H140.442V10.1481C140.442 9.27665 140.231 8.62309 139.811 8.18738C139.39 7.73923 138.791 7.51515 138.014 7.51515C137.134 7.51515 136.44 7.77657 135.93 8.29942C135.42 8.80982 135.165 9.55052 135.165 10.5215V15.5633H132.775V5.59182H135.05V6.88026C135.445 6.41966 135.942 6.07109 136.541 5.83457C137.141 5.59804 137.816 5.47978 138.568 5.47978Z" fill="white"/>
<path d="M150.012 4.13599C149.005 4.13599 148.502 4.67128 148.502 5.74187V6.33942H151.312V8.20673H148.578V15.5633H146.188V8.20673H144.506V6.33942H146.188V5.70453C146.188 4.63394 146.507 3.79364 147.144 3.18366C147.781 2.56122 148.68 2.25 149.84 2.25C150.758 2.25 151.478 2.43051 152 2.79152L151.331 4.54679C150.923 4.27292 150.484 4.13599 150.012 4.13599Z" fill="white"/>
</svg>
